<?xml version="1.0" encoding="UTF-8" standalone="no"?>
<svg
   width="18.463491mm"
   height="17.340372mm"
   viewBox="0 0 18.463491 17.340372"
   version="1.1"
   id="svg8"
   inkscape:version="1.1 (c68e22c387, 2021-05-23)"
   sodipodi:docname="Logo.svg"
   xmlns:inkscape="http://www.inkscape.org/namespaces/inkscape"
   xmlns:sodipodi="http://sodipodi.sourceforge.net/DTD/sodipodi-0.dtd"
   xmlns="http://www.w3.org/2000/svg"
   xmlns:svg="http://www.w3.org/2000/svg"
   xmlns:rdf="http://www.w3.org/1999/02/22-rdf-syntax-ns#"
   xmlns:cc="http://creativecommons.org/ns#"
   xmlns:dc="http://purl.org/dc/elements/1.1/">
  <defs
     id="defs2">
    <rect
       x="-33.072918"
       y="-1.7406797"
       width="128.8103"
       height="202.267"
       id="rect104" />
  </defs>
  <sodipodi:namedview
     id="base"
     pagecolor="#ffffff"
     bordercolor="#666666"
     borderopacity="1.0"
     inkscape:pageopacity="0.0"
     inkscape:pageshadow="2"
     inkscape:zoom="0.61765449"
     inkscape:cx="250.13985"
     inkscape:cy="-10.523683"
     inkscape:document-units="mm"
     inkscape:current-layer="layer1"
     inkscape:document-rotation="0"
     showgrid="false"
     inkscape:window-width="1920"
     inkscape:window-height="1001"
     inkscape:window-x="-9"
     inkscape:window-y="-9"
     inkscape:window-maximized="1"
     inkscape:pagecheckerboard="0" />
  <metadata
     id="metadata5">
    <rdf:RDF>
      <cc:Work
         rdf:about="">
        <dc:format>image/svg+xml</dc:format>
        <dc:type
           rdf:resource="http://purl.org/dc/dcmitype/StillImage" />
      </cc:Work>
    </rdf:RDF>
  </metadata>
  <g
     inkscape:label="Ebene 1"
     inkscape:groupmode="layer"
     id="layer1"
     transform="translate(20.783866,-62.315802)">
    <text
       xml:space="preserve"
       id="text102"
       style="font-size:10.5833px;line-height:1.25;font-family:sans-serif;text-align:center;white-space:pre;shape-inside:url(#rect104)" />
    <path
       style="fill:#cc9c56;fill-opacity:1;stroke:none;stroke-width:1.71213;stroke-miterlimit:4;stroke-dasharray:none;stroke-opacity:1"
       d=""
       id="path1862"
       transform="scale(0.26458333)" />
    <g
       id="g139"
       transform="translate(-25.005974,-8.1389894)">
      <g
         id="g1900"
         transform="matrix(0.5612548,0,0,0.56102228,-74.213999,42.695177)"
         style="stroke-width:1.78209">
        <g
           id="g1870"
           style="stroke-width:1.78209">
          <path
             style="fill:none;stroke:#000000;stroke-width:0.471511px;stroke-linecap:butt;stroke-linejoin:miter;stroke-opacity:1"
             d="m 139.98706,69.777368 c 0.0865,-5.533768 0.77819,-10.721678 0.77819,-10.721678 l 1.86269,-3.554712 2.02824,-1.54673 5.7067,-0.951116 3.80447,1.469906 4.92851,5.447305 4.23679,6.917211 2.07516,4.755584 1.72931,6.139023 c 0,0 1.03758,2.421025 1.55637,2.421025 0.51879,0 3.11275,-0.951116 3.11275,-0.951116 l 0.60525,-8.819446 -0.69172,-6.22549 -1.12405,-4.236791 -2.76688,-4.323257 -0.69172,-0.951117 v 0"
             id="path1850"
             sodipodi:nodetypes="ccccccccccsccccccc" />
          <path
             style="fill:none;stroke:#000000;stroke-width:0.471511px;stroke-linecap:butt;stroke-linejoin:miter;stroke-opacity:1"
             d="m 168.34763,80.06672 -5.10145,-2.16163 -2.85334,-0.691718 -4.32326,-1.383443 -6.91721,-2.075164 -4.23679,-1.296977 -3.54507,-1.383443 -1.38345,-1.296977 v 0"
             id="path1852" />
          <path
             style="fill:none;stroke:#000000;stroke-width:0.471511px;stroke-linecap:butt;stroke-linejoin:miter;stroke-opacity:1"
             d="m 165.40781,71.593138 3.89093,0.08646 3.11275,-1.296977 v 0 0"
             id="path1854" />
          <path
             style="fill:none;stroke:#000000;stroke-width:0.471511px;stroke-linecap:butt;stroke-linejoin:miter;stroke-opacity:1"
             d="m 163.33265,66.837554 v 0 0 l 3.02628,0.951116 1.12405,0.172932 -0.2594,-1.124048 c 0,0 0.86465,0.605255 1.21051,0.951116 0.34587,0.345861 1.29698,0 1.29698,0 l 0.95112,-1.642838 1.21051,0.51879 v 0"
             id="path1856"
             sodipodi:nodetypes="ccccccscccc" />
          <path
             style="fill:none;stroke:#000000;stroke-width:0.471511px;stroke-linecap:butt;stroke-linejoin:miter;stroke-opacity:1"
             d="m 167.13712,54.645969 -0.60526,1.729304 -1.03758,0.51879 -2.68042,0.518789 -2.50749,-0.778184 -1.21051,-1.729303 -2.59395,-1.729303 -2.68042,-1.556372 -2.07517,-0.691722 -3.02628,-0.17293 -3.28567,1.469908 -2.80643,3.276032"
             id="path1858"
             sodipodi:nodetypes="cccccccccccc" />
          <path
             style="fill:none;stroke:#000000;stroke-width:0.471511px;stroke-linecap:butt;stroke-linejoin:miter;stroke-opacity:1"
             d="m 148.72004,50.755038 4.40972,-0.864652 1.9887,0.259395 1.38344,-0.432324 2.42103,0.08646 0.77818,0.08647 1.9887,1.037582 2.33456,0.605255 1.81577,1.469909 1.29698,1.642837 v 0"
             id="path1860"
             sodipodi:nodetypes="ccccccccccc" />
        </g>
        <path
           style="fill:#deb16c;fill-opacity:1;stroke:none;stroke-width:3.05117;stroke-miterlimit:4;stroke-dasharray:none;stroke-opacity:1"
           d="m 625.7987,297.44517 c -7.16258,-3.05187 -9.29737,-3.80697 -14.21568,-5.02826 -3.18309,-0.79041 -8.80213,-2.40606 -12.48677,-3.59034 -3.68464,-1.18427 -12.5817,-3.92187 -19.77124,-6.08356 -24.44178,-7.34895 -32.01818,-9.76353 -38.2353,-12.18548 -6.15282,-2.39691 -6.23256,-2.44062 -8.79039,-4.81903 l -2.58124,-2.40017 0.21704,-6.0496 c 0.27649,-7.70666 1.04677,-18.20401 1.97861,-26.96464 l 0.72997,-6.86274 3.44545,-6.53595 3.44544,-6.53595 3.22854,-2.55076 c 1.7757,-1.40292 3.66972,-2.75741 4.20894,-3.00997 0.53921,-0.25256 5.54467,-1.20775 11.12323,-2.12263 l 10.14283,-1.66343 6.99946,2.71261 6.99946,2.71262 9.07358,9.96732 9.07357,9.96732 8.16581,13.27984 c 8.00046,13.01094 8.24492,13.46091 12.07324,22.22222 3.7332,8.54364 4.04865,9.44511 7.07454,20.21689 3.2992,11.74476 3.91303,13.52584 5.82845,16.91176 0.63549,1.12337 1.05313,2.03362 0.92808,2.02279 -0.12504,-0.0109 -4.02007,-1.63572 -8.65562,-3.61086 z"
           id="path1872"
           transform="scale(0.26458333)" />
        <path
           style="fill:#9c6c42;fill-opacity:1;stroke:none;stroke-width:3.05117;stroke-miterlimit:4;stroke-dasharray:none;stroke-opacity:1"
           d="m 636.68022,301.35235 c -0.50065,-0.54813 -1.65003,-2.4155 -2.55419,-4.14969 -1.36788,-2.62361 -2.13824,-4.9091 -4.58764,-13.61059 -1.61904,-5.75164 -3.04962,-10.88489 -3.17906,-11.40724 l -0.23536,-0.94971 6.99267,0.17518 6.99268,0.17519 5.22876,-2.19188 5.22876,-2.19189 0.10341,0.93745 c 0.14962,1.35633 -1.9075,30.44673 -2.17023,30.68994 -0.23917,0.22139 -7.59576,2.65377 -9.65011,3.1907 -1.17854,0.30802 -1.31788,0.26515 -2.16969,-0.66746 z"
           id="path1874"
           transform="scale(0.26458333)" />
        <path
           style="fill:#b2c347;fill-opacity:1;stroke:none;stroke-width:3.05117;stroke-miterlimit:4;stroke-dasharray:none;stroke-opacity:1"
           d="m 631.42475,270.11241 -5.7434,-0.0971 -3.31304,-7.59073 c -1.82217,-4.1749 -3.40368,-7.83737 -3.51445,-8.13882 -0.1634,-0.44461 0.65179,-0.27224 4.31787,0.91303 4.24827,1.37349 10.11307,2.64694 10.48365,2.27636 0.0918,-0.0918 0.008,-0.79238 -0.18599,-1.55693 -0.19406,-0.76454 -0.31638,-1.42654 -0.27182,-1.4711 0.0446,-0.0445 0.8816,0.5757 1.86008,1.37835 1.6441,1.34865 1.92017,1.45936 3.63919,1.45936 2.81802,0 3.19935,-0.26099 4.95727,-3.39283 0.86945,-1.54898 1.72383,-2.81632 1.89861,-2.81632 0.25816,0 3.45734,1.25148 3.80254,1.48751 0.13896,0.095 1.36499,10.9121 1.3704,12.09086 0.005,0.98272 -0.0745,1.0296 -5.64619,3.34967 -3.90788,1.62725 -5.99939,2.33028 -6.78105,2.27934 -0.62165,-0.0405 -3.7148,-0.11733 -6.87367,-0.1707 z"
           id="path1876"
           transform="scale(0.26458333)" />
        <path
           style="fill:#fed123;fill-opacity:1;stroke:none;stroke-width:3.05117;stroke-miterlimit:4;stroke-dasharray:none;stroke-opacity:1"
           d="m 628.83481,255.4518 c -0.98856,-0.26557 -3.87977,-1.14182 -6.42491,-1.94721 l -4.62753,-1.46434 -7.93691,-12.98226 -7.93691,-12.98226 -9.33099,-10.33886 -9.33098,-10.33886 -7.22488,-2.81474 c -3.97368,-1.5481 -7.53503,-2.81473 -7.9141,-2.81473 -0.93369,0 -21.31437,3.48423 -22.03423,3.76691 -0.94792,0.37225 -0.67671,-0.0767 1.75978,-2.91283 l 2.33166,-2.71415 6.08337,-2.71017 6.08336,-2.71016 5.71896,0.34826 c 5.39322,0.32843 5.92877,0.4225 9.40271,1.65157 4.18289,1.4799 10.90142,5.20967 18.44875,10.24174 4.73587,3.15758 4.84962,3.26166 7.16746,6.5583 l 2.35521,3.34981 4.94295,1.53585 4.94294,1.53586 5.37326,-1.06893 c 3.81852,-0.75965 5.94091,-1.3591 7.3351,-2.07175 l 1.96184,-1.00281 0.9617,-2.77438 0.9617,-2.77437 0.93229,1.28699 c 0.51276,0.70784 3.26723,4.93143 6.12106,9.38576 l 5.18877,8.09877 2.1181,7.97679 c 1.46775,5.52759 2.24351,9.15667 2.52659,11.81954 0.22468,2.11351 0.31544,3.9358 0.20171,4.04954 -0.11374,0.11373 -1.09657,-0.17909 -2.18407,-0.65073 l -1.97728,-0.85752 -0.5636,0.92889 c -0.30998,0.51089 -1.15183,1.96933 -1.87079,3.24099 -1.34998,2.38779 -1.74738,2.66914 -3.78104,2.67692 -0.84574,0.003 -1.51996,-0.29163 -2.45098,-1.07191 -2.11515,-1.77269 -4.73486,-3.58855 -4.91592,-3.40749 -0.0932,0.0932 -0.0276,0.73583 0.14598,1.428 0.77819,3.104 0.77851,3.05755 -0.0212,3.03435 -0.40784,-0.0118 -1.55034,-0.2388 -2.5389,-0.50438 z"
           id="path1884"
           transform="scale(0.26458333)" />
        <path
           style="fill:#eb5f3e;fill-opacity:1;stroke:none;stroke-width:3.05117;stroke-miterlimit:4;stroke-dasharray:none;stroke-opacity:1"
           d="m 614.29233,215.9377 c -0.17974,-0.0655 -2.05207,-0.64948 -4.16074,-1.2977 l -3.83394,-1.17859 -2.21109,-3.20287 -2.2111,-3.20286 -5.71967,-3.77206 c -12.78499,-8.43156 -18.7328,-11.16047 -25.32742,-11.62047 l -3.26787,-0.22794 5.59637,-1.09498 5.59638,-1.09497 3.79522,0.48875 c 3.759,0.48408 3.81941,0.48128 6.33163,-0.29387 2.73893,-0.84511 6.39801,-0.99769 11.71505,-0.48851 2.33923,0.22401 3.09137,0.48182 6.54991,2.24509 2.9483,1.50313 4.90633,2.2416 7.97822,3.00899 2.23906,0.55933 4.51219,1.33217 5.0514,1.71741 3.04979,2.17894 6.61368,5.50684 8.5421,7.97646 l 2.19851,2.81551 -0.98703,2.81757 c -0.98327,2.80683 -0.9943,2.82149 -2.89123,3.84388 -2.63092,1.41798 -11.17198,3.13438 -12.7447,2.56116 z"
           id="path1886"
           transform="scale(0.26458333)" />
      </g>
      <text
         xml:space="preserve"
         style="font-size:3.88056px;line-height:1.25;font-family:sans-serif;text-align:center;text-anchor:middle;stroke-width:0.264583"
         x="11.172485"
         y="78.299049"
         id="text12-3-62-9-4-1"
         transform="skewY(19.4254)"><tspan
           sodipodi:role="line"
           id="tspan10-6-6-0-3-9"
           x="11.172485"
           y="78.299049"
           style="font-size:3.88056px;stroke-width:0.264583">TACCO</tspan></text>
    </g>
  </g>
</svg>
